<svg width="185" height="191" viewBox="0 0 185 191" fill="none" xmlns="http://www.w3.org/2000/svg">
<g clip-path="url(#clip0_505_2)">
<path d="M106.5 94.3399C102.82 93.2499 99.05 92.3599 95.2 91.7199C89.98 90.8399 84.63 90.3799 79.17 90.3799C71.68 90.3799 64.39 91.2399 57.39 92.8699C48.86 94.8499 40.76 97.9699 33.28 102.05C27 105.48 21.14 109.59 15.81 114.29C15 115 14.2 115.73 13.41 116.48C13.34 116.54 13.26 116.62 13.18 116.69C11.5 118.28 9.87 119.93 8.31 121.65C8.31 121.66 8.3 121.67 8.29 121.68C6.3 124.38 4.17 126.98 1.91 129.46C1.91 129.46 1.9 129.48 1.89 129.48C1.27 130.16 0.64 130.82 0 131.48C0.05 131.63 0.1 131.77 0.15 131.91C1.13 134.56 2.22 137.14 3.42 139.67C3.65 140.16 3.89 140.64 4.13 141.13C5.08 142.35 6.1 143.5 7.18 144.57C10.5 147.88 14.47 150.53 18.88 152.34C23.1 154.07 27.71 155.03 32.56 155.03C43.06 155.03 59.68 144.03 59.95 144.37C65.4 141.54 71.59 139.95 78.15 139.95C92.16 139.95 104.47 147.24 111.5 158.23C118.94 137.02 119.4 112.03 106.49 94.3499L106.5 94.3399Z" fill="url(#paint0_linear_505_2)"/>
<path d="M115.41 97.4601C112.51 96.2801 109.53 95.2401 106.5 94.3401C119.41 112.02 118.95 137.01 111.51 158.22C114.94 163.59 117.12 169.83 117.62 176.55C117.69 177.52 117.73 178.51 117.73 179.51C117.73 183.08 117.26 186.54 116.37 189.83C136.53 176.21 151.22 155.14 156.51 130.56C156.57 130.31 156.62 130.05 156.67 129.8C146.26 115.53 131.99 104.25 115.41 97.4701V97.4601Z" fill="url(#paint1_linear_505_2)"/>
<path d="M166.1 78.9499C166 78.8699 165.91 78.7899 165.82 78.6999C164.38 77.4499 162.91 76.2399 161.4 75.0799C157.22 71.8599 152.77 68.9799 148.09 66.4699C142.64 63.5499 136.88 61.1399 130.86 59.3199C129.34 58.8499 127.8 58.4299 126.24 58.0299C118.77 56.1599 110.95 55.1699 102.9 55.1699H102.44C98.25 55.1899 94.12 55.4799 90.07 56.0199C110.45 66.7999 129.28 85.7699 134.95 108.26C143.29 114.23 150.64 121.5 156.69 129.78C156.72 129.83 156.75 129.86 156.78 129.9C161.88 136.91 166.06 144.64 169.12 152.9C172.98 142.5 175.09 131.25 175.09 119.51C175.09 105.01 171.87 91.2499 166.11 78.9299L166.1 78.9499Z" fill="url(#paint2_linear_505_2)"/>
<path d="M90.0501 56.03C68.8101 58.87 49.7601 68.67 35.2801 83.06C31.8201 86.49 28.6301 90.18 25.7301 94.11C23.4901 96.27 17.9401 106.27 13.8801 113.2C13.6801 113.54 13.4801 113.88 13.2801 114.21C11.7301 116.78 10.0801 119.26 8.31006 121.65C9.87006 119.94 11.5001 118.29 13.1801 116.69C13.2501 116.62 13.3301 116.54 13.4101 116.48C14.2001 115.73 15.0001 115 15.8101 114.29C21.1401 109.6 27.0001 105.48 33.2801 102.05C40.7701 97.97 48.8701 94.85 57.3901 92.87C64.3801 91.24 71.6701 90.38 79.1701 90.38C84.6301 90.38 89.9901 90.84 95.2001 91.72C102.22 92.9 108.99 94.85 115.41 97.47C122.36 100.31 128.91 103.96 134.93 108.27C129.26 85.78 110.42 66.81 90.0501 56.03Z" fill="url(#paint3_linear_505_2)"/>
<path d="M51.0299 43.1499C47.1599 46.0899 43.5099 49.3299 40.1399 52.8199C35.0799 58.0399 30.6199 63.8199 26.8399 70.0799C23.0799 78.3899 23.5299 93.8799 20.0699 102.55C22.9699 98.6299 31.8199 86.4699 35.2899 83.0299C52.5299 65.8999 76.2399 55.2699 102.43 55.1499H102.89C104.66 55.1499 106.41 55.2099 108.16 55.2999C95.4 44.8099 78.5299 38.9299 61.5699 36.1699C57.8999 38.2699 54.3799 40.5899 51.0399 43.1299L51.0299 43.1499Z" fill="url(#paint4_linear_505_2)"/>
<path d="M178.47 61.1901C173.83 50.2401 165.66 41.1901 155.24 35.4601C149.12 32.0901 142.59 29.3701 135.75 27.3901C130.81 25.9601 125.69 24.9201 120.45 24.2901C116.71 23.8501 112.91 23.6201 109.05 23.6201C107.4 23.6201 105.75 23.6601 104.12 23.7401C103.15 23.7901 102.17 23.8501 101.2 23.9301C98.81 24.1201 96.45 24.4101 94.12 24.7701C92.65 25.0001 91.2 25.2601 89.76 25.5501C83.17 26.9001 76.83 28.9201 70.81 31.5401C67.64 32.9201 64.56 34.4801 61.58 36.1801C78.54 38.9401 95.41 44.8201 108.17 55.3101C114.37 55.6501 120.41 56.5601 126.24 58.0201C127.8 58.4101 129.34 58.8401 130.86 59.3101C136.88 61.1301 142.65 63.5401 148.09 66.4601C152.77 68.9701 157.22 71.8501 161.4 75.0701C162.91 76.2301 164.38 77.4401 165.82 78.6901C165.88 78.7101 165.94 78.7201 166.01 78.7401C171.97 80.2201 178.16 81.1401 184.51 81.4401C183.24 74.3901 181.2 67.6001 178.48 61.1801L178.47 61.1901Z" fill="url(#paint5_linear_505_2)"/>
<path d="M120.45 24.28C116.71 23.84 112.91 23.61 109.05 23.61C107.4 23.61 105.75 23.65 104.12 23.73C103.15 23.78 102.17 23.84 101.2 23.92C98.8101 24.11 96.4501 24.4 94.1201 24.76C92.6501 24.99 91.2001 25.25 89.7601 25.54C83.1701 26.89 76.8301 28.91 70.8101 31.53C72.6701 29.05 74.3301 26.42 75.7801 23.65C77.1101 21.12 78.2601 18.49 79.2101 15.77C79.2501 15.67 79.2801 15.57 79.3201 15.48C80.7001 11.49 81.6501 7.29999 82.1401 2.96999C82.2601 1.97999 82.3401 0.98999 82.4001 -0.0100098C84.2801 0.27999 86.1401 0.62999 87.9801 1.02999C87.9901 1.02999 88.0001 1.02999 88.0101 1.02999C89.7001 1.50999 91.3601 2.05999 92.9901 2.67999C93.6401 2.91999 94.2801 3.17999 94.9201 3.44999C105.29 7.82999 114.14 15.1 120.47 24.26L120.45 24.28Z" fill="url(#paint6_linear_505_2)"/>
<path d="M79.3101 15.4899C79.2801 15.5899 79.2401 15.6899 79.2001 15.7799C78.2501 18.4999 77.1001 21.1399 75.7701 23.6599C74.3201 26.4199 72.6601 29.0599 70.8001 31.5399C63.7301 34.6199 57.1001 38.5299 51.0401 43.1399C52.3701 38.2299 53.0801 33.0599 53.0801 27.7199C53.0801 27.5399 53.0801 27.3699 53.0801 27.1899C53.0501 22.9999 52.5701 18.9199 51.7001 14.9899C51.4101 13.6699 51.0801 12.3699 50.7001 11.0899C49.9801 8.62988 49.0901 6.22988 48.0601 3.90988C48.0901 3.89988 48.1201 3.88988 48.1401 3.87988C53.1101 4.21988 57.9101 5.17988 62.4701 6.67988C68.5901 8.69988 74.2601 11.6899 79.3101 15.4799V15.4899Z" fill="url(#paint7_linear_505_2)"/>
<path d="M88.52 141.31C85.22 140.42 81.75 139.93 78.17 139.93C71.61 139.93 65.42 141.53 59.97 144.35C65.61 151.19 68.99 159.95 68.99 169.5C68.99 176.57 67.13 183.2 63.88 188.94C65.08 188.18 66.27 187.39 67.44 186.54C81.95 175.87 89.7 158.77 88.52 141.3V141.31Z" fill="url(#paint8_linear_505_2)"/>
<path d="M88.52 141.31C89.7 158.78 81.94 175.88 67.44 186.55C66.27 187.39 65.08 188.19 63.88 188.95C63.57 189.5 63.25 190.04 62.92 190.57C64.44 190.64 65.97 190.68 67.5 190.68C85.88 190.68 103.04 185.51 117.63 176.55C116.38 159.59 104.43 145.62 88.52 141.32V141.31Z" fill="url(#paint9_linear_505_2)"/>
</g>
<defs>
<linearGradient id="paint0_linear_505_2" x1="4.62" y1="83.8399" x2="116.15" y2="160.63" gradientUnits="userSpaceOnUse">
<stop stop-color="#89E2E8"/>
<stop offset="0.51" stop-color="#5D9CB4"/>
<stop offset="1" stop-color="#355A8F"/>
</linearGradient>
<linearGradient id="paint1_linear_505_2" x1="53.5" y1="2.10009" x2="145.96" y2="177.72" gradientUnits="userSpaceOnUse">
<stop stop-color="#89E2E8"/>
<stop offset="0.51" stop-color="#5D9CB4"/>
<stop offset="1" stop-color="#355A8F"/>
</linearGradient>
<linearGradient id="paint2_linear_505_2" x1="73.97" y1="21.8099" x2="152.69" y2="100.94" gradientUnits="userSpaceOnUse">
<stop stop-color="#78C6CB"/>
<stop offset="0.51" stop-color="#5D9CB4"/>
<stop offset="1" stop-color="#355A8F"/>
</linearGradient>
<linearGradient id="paint3_linear_505_2" x1="16.0601" y1="66.82" x2="102.63" y2="123.66" gradientUnits="userSpaceOnUse">
<stop stop-color="#78C6CB"/>
<stop offset="0.51" stop-color="#5D9CB4"/>
<stop offset="1" stop-color="#355A8F"/>
</linearGradient>
<linearGradient id="paint4_linear_505_2" x1="-15.5901" y1="59.2099" x2="118.84" y2="83.4299" gradientUnits="userSpaceOnUse">
<stop stop-color="#78C6CB"/>
<stop offset="0.51" stop-color="#5D9CB4"/>
<stop offset="1" stop-color="#355A8F"/>
</linearGradient>
<linearGradient id="paint5_linear_505_2" x1="12.16" y1="-13.1899" x2="170.01" y2="67.1501" gradientUnits="userSpaceOnUse">
<stop stop-color="#78C6CB"/>
<stop offset="0.51" stop-color="#5D9CB4"/>
<stop offset="1" stop-color="#355A8F"/>
</linearGradient>
<linearGradient id="paint6_linear_505_2" x1="-3.30994" y1="-50.72" x2="135.36" y2="57.07" gradientUnits="userSpaceOnUse">
<stop stop-color="#78C6CB"/>
<stop offset="0.51" stop-color="#5D9CB4"/>
<stop offset="1" stop-color="#355A8F"/>
</linearGradient>
<linearGradient id="paint7_linear_505_2" x1="40.7101" y1="19.2699" x2="83.5101" y2="34.3399" gradientUnits="userSpaceOnUse">
<stop stop-color="#78C6CB"/>
<stop offset="0.51" stop-color="#5D9CB4"/>
<stop offset="1" stop-color="#355A8F"/>
</linearGradient>
<linearGradient id="paint8_linear_505_2" x1="-8.39002" y1="212.88" x2="92.95" y2="146.27" gradientUnits="userSpaceOnUse">
<stop stop-color="#78C6CB"/>
<stop offset="0.51" stop-color="#5D9CB4"/>
<stop offset="1" stop-color="#355A8F"/>
</linearGradient>
<linearGradient id="paint9_linear_505_2" x1="57.31" y1="179.61" x2="102.12" y2="159.83" gradientUnits="userSpaceOnUse">
<stop stop-color="#78C6CB"/>
<stop offset="0.51" stop-color="#5D9CB4"/>
<stop offset="1" stop-color="#355A8F"/>
</linearGradient>
<clipPath id="clip0_505_2">
<rect width="184.5" height="190.68" fill="white"/>
</clipPath>
</defs>
</svg>
